# xmcd
#
# Track frame offsets:
#	150
#	21217
#	36467
#	56623
#	68250
#	81407
#	93908
#	106668
#	116446
#	128275
#	137867
#	152666
#	161825
#	173405
#	198680
#	214531
#	231419
#	244234
#	255677
#
# Disc length: 3615 seconds
#
# Revision: 0
# Processed by: cddbd v1.5.1PL0 Copyright (c) Steve Scherf et al.
# Submitted via: MusicWizard 7.1.1b
#
DISCID=fb0e1d13
DTITLE=Various Artist - De-Lovely
DYEAR=1900
DGENRE=Spielfilm - Musik
TTITLE0=Robbie Williams - It's De-Lovely
TTITLE1=Alanis Morissette - Let's Do It (Lets Fall In Love)
TTITLE2=Sheryl Crow - Begin The Beguine
TTITLE3=Elvis Costello - Let's Misbehave
TTITLE4=Kevin Kline, Peter Polycarpou - Be A Clown
TTITLE5=John Barrowman and Kevin Kline - Night And Day
TTITLE6=Kevin Kline - Easy To Love
TTITLE7=Ashley Judd and Tayler Hamilton - True Love
TTITLE8=Lemar - What Is This Thing Called Love
TTITLE9=Mick Hucknall - I Love You
TTITLE10=Diana Krall - Just One Of Those Things
TTITLE11=Caroline O'Connor and Chorus - Anything Goes
TTITLE12=Kevin Kline - Experiment
TTITLE13=Vivian Green - Love For Sale
TTITLE14=Lara Fabian and Mario Frangoulis - So In Love
TTITLE15=Natalie Cole - Ev'ry Time We Say Goodbye
TTITLE16=Jonathan Pryce, Kevin Kline, Chorus - Blow, Gabriel, Blow
TTITLE17=Kevin Kline and Ashley Judd - In The Still Of The Night
TTITLE18=Cole Porter - You're The Top
EXTD=
EXTT0=
EXTT1=
EXTT2=
EXTT3=
EXTT4=
EXTT5=
EXTT6=
EXTT7=
EXTT8=
EXTT9=
EXTT10=
EXTT11=
EXTT12=
EXTT13=
EXTT14=
EXTT15=
EXTT16=
EXTT17=
EXTT18=
PLAYORDER=
